<?xml version="1.0" standalone="no"?>
<svg xmlns="http://www.w3.org/2000/svg" version="1.1" width="245" height="245">
	<!-- Created with https://api.qrserver.com (QR Code API, see goQR.me/api for information) -->
	<title>QR Code</title>
	<desc>http://oa.mi.ur.de/~gog59212/FMApp/index.html?BY.R.C.2900.2900.0.01</desc>
	<rect style="fill:rgb(255, 255, 255);fill-opacity:1" x="0" y="0" width="245" height="245" />
	<g id="elements">
		<path style="fill:rgb(0, 0, 0)" d="M 7,7 l 7,0 0,7 -7,0 z M 14,7 l 7,0 0,7 -7,0 z M 21,7 l 7,0 0,7 -7,0 z M 28,7 l 7,0 0,7 -7,0 z M 35,7 l 7,0 0,7 -7,0 z M 42,7 l 7,0 0,7 -7,0 z M 49,7 l 7,0 0,7 -7,0 z M 77,7 l 7,0 0,7 -7,0 z M 91,7 l 7,0 0,7 -7,0 z M 98,7 l 7,0 0,7 -7,0 z M 119,7 l 7,0 0,7 -7,0 z M 126,7 l 7,0 0,7 -7,0 z M 133,7 l 7,0 0,7 -7,0 z M 154,7 l 7,0 0,7 -7,0 z M 168,7 l 7,0 0,7 -7,0 z M 189,7 l 7,0 0,7 -7,0 z M 196,7 l 7,0 0,7 -7,0 z M 203,7 l 7,0 0,7 -7,0 z M 210,7 l 7,0 0,7 -7,0 z M 217,7 l 7,0 0,7 -7,0 z M 224,7 l 7,0 0,7 -7,0 z M 231,7 l 7,0 0,7 -7,0 z M 7,14 l 7,0 0,7 -7,0 z M 49,14 l 7,0 0,7 -7,0 z M 63,14 l 7,0 0,7 -7,0 z M 77,14 l 7,0 0,7 -7,0 z M 105,14 l 7,0 0,7 -7,0 z M 140,14 l 7,0 0,7 -7,0 z M 189,14 l 7,0 0,7 -7,0 z M 231,14 l 7,0 0,7 -7,0 z M 7,21 l 7,0 0,7 -7,0 z M 21,21 l 7,0 0,7 -7,0 z M 28,21 l 7,0 0,7 -7,0 z M 35,21 l 7,0 0,7 -7,0 z M 49,21 l 7,0 0,7 -7,0 z M 91,21 l 7,0 0,7 -7,0 z M 112,21 l 7,0 0,7 -7,0 z M 126,21 l 7,0 0,7 -7,0 z M 140,21 l 7,0 0,7 -7,0 z M 147,21 l 7,0 0,7 -7,0 z M 154,21 l 7,0 0,7 -7,0 z M 168,21 l 7,0 0,7 -7,0 z M 175,21 l 7,0 0,7 -7,0 z M 189,21 l 7,0 0,7 -7,0 z M 203,21 l 7,0 0,7 -7,0 z M 210,21 l 7,0 0,7 -7,0 z M 217,21 l 7,0 0,7 -7,0 z M 231,21 l 7,0 0,7 -7,0 z M 7,28 l 7,0 0,7 -7,0 z M 21,28 l 7,0 0,7 -7,0 z M 28,28 l 7,0 0,7 -7,0 z M 35,28 l 7,0 0,7 -7,0 z M 49,28 l 7,0 0,7 -7,0 z M 63,28 l 7,0 0,7 -7,0 z M 70,28 l 7,0 0,7 -7,0 z M 77,28 l 7,0 0,7 -7,0 z M 91,28 l 7,0 0,7 -7,0 z M 105,28 l 7,0 0,7 -7,0 z M 112,28 l 7,0 0,7 -7,0 z M 126,28 l 7,0 0,7 -7,0 z M 133,28 l 7,0 0,7 -7,0 z M 140,28 l 7,0 0,7 -7,0 z M 154,28 l 7,0 0,7 -7,0 z M 168,28 l 7,0 0,7 -7,0 z M 175,28 l 7,0 0,7 -7,0 z M 189,28 l 7,0 0,7 -7,0 z M 203,28 l 7,0 0,7 -7,0 z M 210,28 l 7,0 0,7 -7,0 z M 217,28 l 7,0 0,7 -7,0 z M 231,28 l 7,0 0,7 -7,0 z M 7,35 l 7,0 0,7 -7,0 z M 21,35 l 7,0 0,7 -7,0 z M 28,35 l 7,0 0,7 -7,0 z M 35,35 l 7,0 0,7 -7,0 z M 49,35 l 7,0 0,7 -7,0 z M 70,35 l 7,0 0,7 -7,0 z M 98,35 l 7,0 0,7 -7,0 z M 105,35 l 7,0 0,7 -7,0 z M 112,35 l 7,0 0,7 -7,0 z M 126,35 l 7,0 0,7 -7,0 z M 133,35 l 7,0 0,7 -7,0 z M 154,35 l 7,0 0,7 -7,0 z M 161,35 l 7,0 0,7 -7,0 z M 175,35 l 7,0 0,7 -7,0 z M 189,35 l 7,0 0,7 -7,0 z M 203,35 l 7,0 0,7 -7,0 z M 210,35 l 7,0 0,7 -7,0 z M 217,35 l 7,0 0,7 -7,0 z M 231,35 l 7,0 0,7 -7,0 z M 7,42 l 7,0 0,7 -7,0 z M 49,42 l 7,0 0,7 -7,0 z M 63,42 l 7,0 0,7 -7,0 z M 70,42 l 7,0 0,7 -7,0 z M 84,42 l 7,0 0,7 -7,0 z M 91,42 l 7,0 0,7 -7,0 z M 105,42 l 7,0 0,7 -7,0 z M 112,42 l 7,0 0,7 -7,0 z M 147,42 l 7,0 0,7 -7,0 z M 154,42 l 7,0 0,7 -7,0 z M 161,42 l 7,0 0,7 -7,0 z M 175,42 l 7,0 0,7 -7,0 z M 189,42 l 7,0 0,7 -7,0 z M 231,42 l 7,0 0,7 -7,0 z M 7,49 l 7,0 0,7 -7,0 z M 14,49 l 7,0 0,7 -7,0 z M 21,49 l 7,0 0,7 -7,0 z M 28,49 l 7,0 0,7 -7,0 z M 35,49 l 7,0 0,7 -7,0 z M 42,49 l 7,0 0,7 -7,0 z M 49,49 l 7,0 0,7 -7,0 z M 63,49 l 7,0 0,7 -7,0 z M 77,49 l 7,0 0,7 -7,0 z M 91,49 l 7,0 0,7 -7,0 z M 105,49 l 7,0 0,7 -7,0 z M 119,49 l 7,0 0,7 -7,0 z M 133,49 l 7,0 0,7 -7,0 z M 147,49 l 7,0 0,7 -7,0 z M 161,49 l 7,0 0,7 -7,0 z M 175,49 l 7,0 0,7 -7,0 z M 189,49 l 7,0 0,7 -7,0 z M 196,49 l 7,0 0,7 -7,0 z M 203,49 l 7,0 0,7 -7,0 z M 210,49 l 7,0 0,7 -7,0 z M 217,49 l 7,0 0,7 -7,0 z M 224,49 l 7,0 0,7 -7,0 z M 231,49 l 7,0 0,7 -7,0 z M 70,56 l 7,0 0,7 -7,0 z M 77,56 l 7,0 0,7 -7,0 z M 84,56 l 7,0 0,7 -7,0 z M 98,56 l 7,0 0,7 -7,0 z M 105,56 l 7,0 0,7 -7,0 z M 112,56 l 7,0 0,7 -7,0 z M 126,56 l 7,0 0,7 -7,0 z M 147,56 l 7,0 0,7 -7,0 z M 154,56 l 7,0 0,7 -7,0 z M 161,56 l 7,0 0,7 -7,0 z M 168,56 l 7,0 0,7 -7,0 z M 175,56 l 7,0 0,7 -7,0 z M 7,63 l 7,0 0,7 -7,0 z M 14,63 l 7,0 0,7 -7,0 z M 21,63 l 7,0 0,7 -7,0 z M 28,63 l 7,0 0,7 -7,0 z M 35,63 l 7,0 0,7 -7,0 z M 49,63 l 7,0 0,7 -7,0 z M 56,63 l 7,0 0,7 -7,0 z M 63,63 l 7,0 0,7 -7,0 z M 70,63 l 7,0 0,7 -7,0 z M 84,63 l 7,0 0,7 -7,0 z M 119,63 l 7,0 0,7 -7,0 z M 133,63 l 7,0 0,7 -7,0 z M 140,63 l 7,0 0,7 -7,0 z M 154,63 l 7,0 0,7 -7,0 z M 161,63 l 7,0 0,7 -7,0 z M 168,63 l 7,0 0,7 -7,0 z M 175,63 l 7,0 0,7 -7,0 z M 182,63 l 7,0 0,7 -7,0 z M 196,63 l 7,0 0,7 -7,0 z M 210,63 l 7,0 0,7 -7,0 z M 224,63 l 7,0 0,7 -7,0 z M 7,70 l 7,0 0,7 -7,0 z M 14,70 l 7,0 0,7 -7,0 z M 21,70 l 7,0 0,7 -7,0 z M 28,70 l 7,0 0,7 -7,0 z M 35,70 l 7,0 0,7 -7,0 z M 77,70 l 7,0 0,7 -7,0 z M 91,70 l 7,0 0,7 -7,0 z M 98,70 l 7,0 0,7 -7,0 z M 112,70 l 7,0 0,7 -7,0 z M 133,70 l 7,0 0,7 -7,0 z M 147,70 l 7,0 0,7 -7,0 z M 161,70 l 7,0 0,7 -7,0 z M 168,70 l 7,0 0,7 -7,0 z M 189,70 l 7,0 0,7 -7,0 z M 196,70 l 7,0 0,7 -7,0 z M 224,70 l 7,0 0,7 -7,0 z M 231,70 l 7,0 0,7 -7,0 z M 21,77 l 7,0 0,7 -7,0 z M 35,77 l 7,0 0,7 -7,0 z M 49,77 l 7,0 0,7 -7,0 z M 56,77 l 7,0 0,7 -7,0 z M 77,77 l 7,0 0,7 -7,0 z M 112,77 l 7,0 0,7 -7,0 z M 119,77 l 7,0 0,7 -7,0 z M 126,77 l 7,0 0,7 -7,0 z M 140,77 l 7,0 0,7 -7,0 z M 147,77 l 7,0 0,7 -7,0 z M 154,77 l 7,0 0,7 -7,0 z M 161,77 l 7,0 0,7 -7,0 z M 168,77 l 7,0 0,7 -7,0 z M 175,77 l 7,0 0,7 -7,0 z M 182,77 l 7,0 0,7 -7,0 z M 189,77 l 7,0 0,7 -7,0 z M 196,77 l 7,0 0,7 -7,0 z M 203,77 l 7,0 0,7 -7,0 z M 7,84 l 7,0 0,7 -7,0 z M 14,84 l 7,0 0,7 -7,0 z M 21,84 l 7,0 0,7 -7,0 z M 56,84 l 7,0 0,7 -7,0 z M 91,84 l 7,0 0,7 -7,0 z M 126,84 l 7,0 0,7 -7,0 z M 147,84 l 7,0 0,7 -7,0 z M 175,84 l 7,0 0,7 -7,0 z M 189,84 l 7,0 0,7 -7,0 z M 196,84 l 7,0 0,7 -7,0 z M 217,84 l 7,0 0,7 -7,0 z M 21,91 l 7,0 0,7 -7,0 z M 35,91 l 7,0 0,7 -7,0 z M 49,91 l 7,0 0,7 -7,0 z M 70,91 l 7,0 0,7 -7,0 z M 77,91 l 7,0 0,7 -7,0 z M 91,91 l 7,0 0,7 -7,0 z M 112,91 l 7,0 0,7 -7,0 z M 126,91 l 7,0 0,7 -7,0 z M 154,91 l 7,0 0,7 -7,0 z M 168,91 l 7,0 0,7 -7,0 z M 175,91 l 7,0 0,7 -7,0 z M 182,91 l 7,0 0,7 -7,0 z M 203,91 l 7,0 0,7 -7,0 z M 7,98 l 7,0 0,7 -7,0 z M 70,98 l 7,0 0,7 -7,0 z M 105,98 l 7,0 0,7 -7,0 z M 112,98 l 7,0 0,7 -7,0 z M 133,98 l 7,0 0,7 -7,0 z M 154,98 l 7,0 0,7 -7,0 z M 161,98 l 7,0 0,7 -7,0 z M 189,98 l 7,0 0,7 -7,0 z M 210,98 l 7,0 0,7 -7,0 z M 224,98 l 7,0 0,7 -7,0 z M 231,98 l 7,0 0,7 -7,0 z M 7,105 l 7,0 0,7 -7,0 z M 14,105 l 7,0 0,7 -7,0 z M 21,105 l 7,0 0,7 -7,0 z M 28,105 l 7,0 0,7 -7,0 z M 35,105 l 7,0 0,7 -7,0 z M 42,105 l 7,0 0,7 -7,0 z M 49,105 l 7,0 0,7 -7,0 z M 56,105 l 7,0 0,7 -7,0 z M 77,105 l 7,0 0,7 -7,0 z M 84,105 l 7,0 0,7 -7,0 z M 91,105 l 7,0 0,7 -7,0 z M 147,105 l 7,0 0,7 -7,0 z M 154,105 l 7,0 0,7 -7,0 z M 161,105 l 7,0 0,7 -7,0 z M 175,105 l 7,0 0,7 -7,0 z M 182,105 l 7,0 0,7 -7,0 z M 210,105 l 7,0 0,7 -7,0 z M 224,105 l 7,0 0,7 -7,0 z M 14,112 l 7,0 0,7 -7,0 z M 28,112 l 7,0 0,7 -7,0 z M 42,112 l 7,0 0,7 -7,0 z M 56,112 l 7,0 0,7 -7,0 z M 63,112 l 7,0 0,7 -7,0 z M 70,112 l 7,0 0,7 -7,0 z M 77,112 l 7,0 0,7 -7,0 z M 84,112 l 7,0 0,7 -7,0 z M 133,112 l 7,0 0,7 -7,0 z M 140,112 l 7,0 0,7 -7,0 z M 147,112 l 7,0 0,7 -7,0 z M 175,112 l 7,0 0,7 -7,0 z M 217,112 l 7,0 0,7 -7,0 z M 14,119 l 7,0 0,7 -7,0 z M 21,119 l 7,0 0,7 -7,0 z M 28,119 l 7,0 0,7 -7,0 z M 35,119 l 7,0 0,7 -7,0 z M 49,119 l 7,0 0,7 -7,0 z M 56,119 l 7,0 0,7 -7,0 z M 77,119 l 7,0 0,7 -7,0 z M 84,119 l 7,0 0,7 -7,0 z M 133,119 l 7,0 0,7 -7,0 z M 140,119 l 7,0 0,7 -7,0 z M 154,119 l 7,0 0,7 -7,0 z M 175,119 l 7,0 0,7 -7,0 z M 182,119 l 7,0 0,7 -7,0 z M 203,119 l 7,0 0,7 -7,0 z M 224,119 l 7,0 0,7 -7,0 z M 21,126 l 7,0 0,7 -7,0 z M 35,126 l 7,0 0,7 -7,0 z M 56,126 l 7,0 0,7 -7,0 z M 91,126 l 7,0 0,7 -7,0 z M 98,126 l 7,0 0,7 -7,0 z M 112,126 l 7,0 0,7 -7,0 z M 140,126 l 7,0 0,7 -7,0 z M 154,126 l 7,0 0,7 -7,0 z M 168,126 l 7,0 0,7 -7,0 z M 175,126 l 7,0 0,7 -7,0 z M 189,126 l 7,0 0,7 -7,0 z M 210,126 l 7,0 0,7 -7,0 z M 224,126 l 7,0 0,7 -7,0 z M 231,126 l 7,0 0,7 -7,0 z M 21,133 l 7,0 0,7 -7,0 z M 35,133 l 7,0 0,7 -7,0 z M 49,133 l 7,0 0,7 -7,0 z M 98,133 l 7,0 0,7 -7,0 z M 105,133 l 7,0 0,7 -7,0 z M 112,133 l 7,0 0,7 -7,0 z M 140,133 l 7,0 0,7 -7,0 z M 154,133 l 7,0 0,7 -7,0 z M 182,133 l 7,0 0,7 -7,0 z M 196,133 l 7,0 0,7 -7,0 z M 203,133 l 7,0 0,7 -7,0 z M 210,133 l 7,0 0,7 -7,0 z M 224,133 l 7,0 0,7 -7,0 z M 7,140 l 7,0 0,7 -7,0 z M 21,140 l 7,0 0,7 -7,0 z M 35,140 l 7,0 0,7 -7,0 z M 56,140 l 7,0 0,7 -7,0 z M 63,140 l 7,0 0,7 -7,0 z M 70,140 l 7,0 0,7 -7,0 z M 91,140 l 7,0 0,7 -7,0 z M 98,140 l 7,0 0,7 -7,0 z M 147,140 l 7,0 0,7 -7,0 z M 161,140 l 7,0 0,7 -7,0 z M 168,140 l 7,0 0,7 -7,0 z M 182,140 l 7,0 0,7 -7,0 z M 203,140 l 7,0 0,7 -7,0 z M 210,140 l 7,0 0,7 -7,0 z M 217,140 l 7,0 0,7 -7,0 z M 42,147 l 7,0 0,7 -7,0 z M 49,147 l 7,0 0,7 -7,0 z M 56,147 l 7,0 0,7 -7,0 z M 91,147 l 7,0 0,7 -7,0 z M 105,147 l 7,0 0,7 -7,0 z M 140,147 l 7,0 0,7 -7,0 z M 154,147 l 7,0 0,7 -7,0 z M 161,147 l 7,0 0,7 -7,0 z M 175,147 l 7,0 0,7 -7,0 z M 196,147 l 7,0 0,7 -7,0 z M 203,147 l 7,0 0,7 -7,0 z M 224,147 l 7,0 0,7 -7,0 z M 7,154 l 7,0 0,7 -7,0 z M 56,154 l 7,0 0,7 -7,0 z M 70,154 l 7,0 0,7 -7,0 z M 77,154 l 7,0 0,7 -7,0 z M 133,154 l 7,0 0,7 -7,0 z M 168,154 l 7,0 0,7 -7,0 z M 189,154 l 7,0 0,7 -7,0 z M 196,154 l 7,0 0,7 -7,0 z M 210,154 l 7,0 0,7 -7,0 z M 224,154 l 7,0 0,7 -7,0 z M 231,154 l 7,0 0,7 -7,0 z M 7,161 l 7,0 0,7 -7,0 z M 21,161 l 7,0 0,7 -7,0 z M 28,161 l 7,0 0,7 -7,0 z M 49,161 l 7,0 0,7 -7,0 z M 56,161 l 7,0 0,7 -7,0 z M 63,161 l 7,0 0,7 -7,0 z M 84,161 l 7,0 0,7 -7,0 z M 91,161 l 7,0 0,7 -7,0 z M 112,161 l 7,0 0,7 -7,0 z M 119,161 l 7,0 0,7 -7,0 z M 126,161 l 7,0 0,7 -7,0 z M 133,161 l 7,0 0,7 -7,0 z M 140,161 l 7,0 0,7 -7,0 z M 161,161 l 7,0 0,7 -7,0 z M 182,161 l 7,0 0,7 -7,0 z M 189,161 l 7,0 0,7 -7,0 z M 210,161 l 7,0 0,7 -7,0 z M 224,161 l 7,0 0,7 -7,0 z M 7,168 l 7,0 0,7 -7,0 z M 28,168 l 7,0 0,7 -7,0 z M 56,168 l 7,0 0,7 -7,0 z M 63,168 l 7,0 0,7 -7,0 z M 77,168 l 7,0 0,7 -7,0 z M 84,168 l 7,0 0,7 -7,0 z M 105,168 l 7,0 0,7 -7,0 z M 133,168 l 7,0 0,7 -7,0 z M 147,168 l 7,0 0,7 -7,0 z M 154,168 l 7,0 0,7 -7,0 z M 168,168 l 7,0 0,7 -7,0 z M 182,168 l 7,0 0,7 -7,0 z M 189,168 l 7,0 0,7 -7,0 z M 196,168 l 7,0 0,7 -7,0 z M 203,168 l 7,0 0,7 -7,0 z M 210,168 l 7,0 0,7 -7,0 z M 217,168 l 7,0 0,7 -7,0 z M 7,175 l 7,0 0,7 -7,0 z M 21,175 l 7,0 0,7 -7,0 z M 28,175 l 7,0 0,7 -7,0 z M 42,175 l 7,0 0,7 -7,0 z M 49,175 l 7,0 0,7 -7,0 z M 70,175 l 7,0 0,7 -7,0 z M 77,175 l 7,0 0,7 -7,0 z M 84,175 l 7,0 0,7 -7,0 z M 112,175 l 7,0 0,7 -7,0 z M 126,175 l 7,0 0,7 -7,0 z M 133,175 l 7,0 0,7 -7,0 z M 140,175 l 7,0 0,7 -7,0 z M 154,175 l 7,0 0,7 -7,0 z M 168,175 l 7,0 0,7 -7,0 z M 175,175 l 7,0 0,7 -7,0 z M 182,175 l 7,0 0,7 -7,0 z M 189,175 l 7,0 0,7 -7,0 z M 196,175 l 7,0 0,7 -7,0 z M 203,175 l 7,0 0,7 -7,0 z M 231,175 l 7,0 0,7 -7,0 z M 63,182 l 7,0 0,7 -7,0 z M 70,182 l 7,0 0,7 -7,0 z M 91,182 l 7,0 0,7 -7,0 z M 98,182 l 7,0 0,7 -7,0 z M 105,182 l 7,0 0,7 -7,0 z M 112,182 l 7,0 0,7 -7,0 z M 119,182 l 7,0 0,7 -7,0 z M 126,182 l 7,0 0,7 -7,0 z M 147,182 l 7,0 0,7 -7,0 z M 175,182 l 7,0 0,7 -7,0 z M 203,182 l 7,0 0,7 -7,0 z M 217,182 l 7,0 0,7 -7,0 z M 231,182 l 7,0 0,7 -7,0 z M 7,189 l 7,0 0,7 -7,0 z M 14,189 l 7,0 0,7 -7,0 z M 21,189 l 7,0 0,7 -7,0 z M 28,189 l 7,0 0,7 -7,0 z M 35,189 l 7,0 0,7 -7,0 z M 42,189 l 7,0 0,7 -7,0 z M 49,189 l 7,0 0,7 -7,0 z M 63,189 l 7,0 0,7 -7,0 z M 70,189 l 7,0 0,7 -7,0 z M 98,189 l 7,0 0,7 -7,0 z M 105,189 l 7,0 0,7 -7,0 z M 112,189 l 7,0 0,7 -7,0 z M 140,189 l 7,0 0,7 -7,0 z M 147,189 l 7,0 0,7 -7,0 z M 161,189 l 7,0 0,7 -7,0 z M 168,189 l 7,0 0,7 -7,0 z M 175,189 l 7,0 0,7 -7,0 z M 189,189 l 7,0 0,7 -7,0 z M 203,189 l 7,0 0,7 -7,0 z M 210,189 l 7,0 0,7 -7,0 z M 217,189 l 7,0 0,7 -7,0 z M 224,189 l 7,0 0,7 -7,0 z M 7,196 l 7,0 0,7 -7,0 z M 49,196 l 7,0 0,7 -7,0 z M 70,196 l 7,0 0,7 -7,0 z M 91,196 l 7,0 0,7 -7,0 z M 98,196 l 7,0 0,7 -7,0 z M 119,196 l 7,0 0,7 -7,0 z M 126,196 l 7,0 0,7 -7,0 z M 147,196 l 7,0 0,7 -7,0 z M 154,196 l 7,0 0,7 -7,0 z M 168,196 l 7,0 0,7 -7,0 z M 175,196 l 7,0 0,7 -7,0 z M 203,196 l 7,0 0,7 -7,0 z M 217,196 l 7,0 0,7 -7,0 z M 224,196 l 7,0 0,7 -7,0 z M 231,196 l 7,0 0,7 -7,0 z M 7,203 l 7,0 0,7 -7,0 z M 21,203 l 7,0 0,7 -7,0 z M 28,203 l 7,0 0,7 -7,0 z M 35,203 l 7,0 0,7 -7,0 z M 49,203 l 7,0 0,7 -7,0 z M 63,203 l 7,0 0,7 -7,0 z M 70,203 l 7,0 0,7 -7,0 z M 91,203 l 7,0 0,7 -7,0 z M 105,203 l 7,0 0,7 -7,0 z M 112,203 l 7,0 0,7 -7,0 z M 119,203 l 7,0 0,7 -7,0 z M 126,203 l 7,0 0,7 -7,0 z M 140,203 l 7,0 0,7 -7,0 z M 154,203 l 7,0 0,7 -7,0 z M 175,203 l 7,0 0,7 -7,0 z M 182,203 l 7,0 0,7 -7,0 z M 189,203 l 7,0 0,7 -7,0 z M 196,203 l 7,0 0,7 -7,0 z M 203,203 l 7,0 0,7 -7,0 z M 224,203 l 7,0 0,7 -7,0 z M 7,210 l 7,0 0,7 -7,0 z M 21,210 l 7,0 0,7 -7,0 z M 28,210 l 7,0 0,7 -7,0 z M 35,210 l 7,0 0,7 -7,0 z M 49,210 l 7,0 0,7 -7,0 z M 63,210 l 7,0 0,7 -7,0 z M 70,210 l 7,0 0,7 -7,0 z M 119,210 l 7,0 0,7 -7,0 z M 140,210 l 7,0 0,7 -7,0 z M 154,210 l 7,0 0,7 -7,0 z M 168,210 l 7,0 0,7 -7,0 z M 182,210 l 7,0 0,7 -7,0 z M 196,210 l 7,0 0,7 -7,0 z M 203,210 l 7,0 0,7 -7,0 z M 210,210 l 7,0 0,7 -7,0 z M 224,210 l 7,0 0,7 -7,0 z M 7,217 l 7,0 0,7 -7,0 z M 21,217 l 7,0 0,7 -7,0 z M 28,217 l 7,0 0,7 -7,0 z M 35,217 l 7,0 0,7 -7,0 z M 49,217 l 7,0 0,7 -7,0 z M 63,217 l 7,0 0,7 -7,0 z M 70,217 l 7,0 0,7 -7,0 z M 84,217 l 7,0 0,7 -7,0 z M 91,217 l 7,0 0,7 -7,0 z M 112,217 l 7,0 0,7 -7,0 z M 119,217 l 7,0 0,7 -7,0 z M 126,217 l 7,0 0,7 -7,0 z M 147,217 l 7,0 0,7 -7,0 z M 154,217 l 7,0 0,7 -7,0 z M 161,217 l 7,0 0,7 -7,0 z M 168,217 l 7,0 0,7 -7,0 z M 175,217 l 7,0 0,7 -7,0 z M 182,217 l 7,0 0,7 -7,0 z M 189,217 l 7,0 0,7 -7,0 z M 7,224 l 7,0 0,7 -7,0 z M 49,224 l 7,0 0,7 -7,0 z M 63,224 l 7,0 0,7 -7,0 z M 70,224 l 7,0 0,7 -7,0 z M 77,224 l 7,0 0,7 -7,0 z M 84,224 l 7,0 0,7 -7,0 z M 105,224 l 7,0 0,7 -7,0 z M 119,224 l 7,0 0,7 -7,0 z M 126,224 l 7,0 0,7 -7,0 z M 147,224 l 7,0 0,7 -7,0 z M 161,224 l 7,0 0,7 -7,0 z M 182,224 l 7,0 0,7 -7,0 z M 189,224 l 7,0 0,7 -7,0 z M 210,224 l 7,0 0,7 -7,0 z M 217,224 l 7,0 0,7 -7,0 z M 7,231 l 7,0 0,7 -7,0 z M 14,231 l 7,0 0,7 -7,0 z M 21,231 l 7,0 0,7 -7,0 z M 28,231 l 7,0 0,7 -7,0 z M 35,231 l 7,0 0,7 -7,0 z M 42,231 l 7,0 0,7 -7,0 z M 49,231 l 7,0 0,7 -7,0 z M 63,231 l 7,0 0,7 -7,0 z M 70,231 l 7,0 0,7 -7,0 z M 77,231 l 7,0 0,7 -7,0 z M 84,231 l 7,0 0,7 -7,0 z M 112,231 l 7,0 0,7 -7,0 z M 119,231 l 7,0 0,7 -7,0 z M 126,231 l 7,0 0,7 -7,0 z M 133,231 l 7,0 0,7 -7,0 z M 140,231 l 7,0 0,7 -7,0 z M 161,231 l 7,0 0,7 -7,0 z M 168,231 l 7,0 0,7 -7,0 z M 175,231 l 7,0 0,7 -7,0 z M 189,231 l 7,0 0,7 -7,0 z M 203,231 l 7,0 0,7 -7,0 z M 224,231 l 7,0 0,7 -7,0 z " />
	</g>
</svg>
